<?xml version="1.0" encoding="UTF-8"?>
<svg id="Capa_2" data-name="Capa 2" xmlns="http://www.w3.org/2000/svg" viewBox="0 0 936 355.58">
  <defs>
    <style>
      .cls-1 {
        fill: #ff0062;
      }

      .cls-2 {
        fill: #fff;
      }
    </style>
  </defs>
  <g id="Layer_1" data-name="Layer 1">
    <g>
      <g>
        <path class="cls-2" d="M0,9.11h113.65v24.96H26.31v80.26h75.54v24.96H26.31v105.89H0V9.11Z"/>
        <path class="cls-1" d="M150.08,236.24c-14.62-8.43-26.14-19.9-34.57-34.4s-12.65-30.41-12.65-47.72,4.22-33.56,12.65-48.06,19.95-25.97,34.57-34.4c14.61-8.43,30.69-12.65,48.23-12.65s32.37,4.22,46.54,12.65c14.16,8.43,25.34,19.9,33.55,34.4,8.2,14.5,12.31,30.52,12.31,48.06,0,4.05-.45,7.87-1.35,11.47h-159.86c1.57,11.24,5.62,21.36,12.14,30.35s14.67,16.08,24.45,21.25,20.51,7.76,32.21,7.76c13.04,0,24.84-3.37,35.41-10.12s18.21-15.74,22.93-26.98h28.33c-5.62,18.21-16.41,32.94-32.37,44.18-15.97,11.24-34.06,16.86-54.3,16.86-17.54,0-33.61-4.22-48.22-12.65ZM264.74,142.66c-1.58-11.47-5.51-21.69-11.8-30.69-6.3-8.99-14.16-16.07-23.61-21.25-9.44-5.17-19.79-7.76-31.03-7.76s-22.48,2.59-32.37,7.76c-9.9,5.17-18.04,12.26-24.45,21.25-6.41,8.99-10.4,19.22-11.97,30.69h135.23Z"/>
        <path class="cls-1" d="M388.1,248.89c-20.23,0-38.33-5.62-54.3-16.86-15.96-11.24-26.75-25.97-32.37-44.18h28.33c4.72,11.24,12.37,20.24,22.93,26.98,10.57,6.74,22.37,10.12,35.41,10.12,11.69,0,22.43-2.58,32.21-7.76,9.78-5.17,17.93-12.25,24.45-21.25,6.52-8.99,10.57-19.11,12.14-30.35h-159.85c-.9-3.59-1.35-7.42-1.35-11.47,0-17.54,4.11-33.56,12.31-48.06,8.21-14.5,19.39-25.97,33.55-34.4s29.68-12.65,46.54-12.65,33.61,4.22,48.23,12.65,26.14,19.9,34.57,34.4,12.65,30.52,12.65,48.06-4.22,33.22-12.65,47.72c-8.43,14.5-19.95,25.97-34.57,34.4-14.61,8.43-30.69,12.65-48.23,12.65ZM456.9,142.66c-1.57-11.47-5.56-21.69-11.97-30.69-6.41-8.99-14.55-16.07-24.45-21.25-9.89-5.17-20.68-7.76-32.37-7.76s-21.58,2.59-31.03,7.76c-9.44,5.17-17.31,12.26-23.61,21.25-6.29,8.99-10.23,19.22-11.8,30.69h135.23Z"/>
        <path class="cls-2" d="M494.55,0h25.29v248.88h-25.29V0Z"/>
        <path class="cls-2" d="M547.5,4.72h25.63v36.08h-25.63V4.72ZM547.5,66.44h25.29v182.45h-25.29V66.44Z"/>
        <path class="cls-2" d="M715.62,101.17c-9.11-9.66-21.19-14.5-36.25-14.5-10.12,0-19.28,2.25-27.49,6.74-8.21,4.5-14.62,10.74-19.22,18.72-4.61,7.98-6.91,16.92-6.91,26.81v109.94h-25.29V66.44h25.29v27.99c6.07-9.89,14.16-17.65,24.28-23.27,10.12-5.62,21.36-8.43,33.72-8.43,14.16,0,26.53,3.2,37.1,9.61,10.57,6.41,18.77,15.4,24.62,26.98,5.84,11.58,8.77,24.9,8.77,39.96v109.6h-24.96v-109.6c0-15.73-4.56-28.44-13.66-38.11Z"/>
        <path class="cls-2" d="M825.72,211.11l-27.32,38.78h78.58c18.88,0,33.44,5.34,43.67,16.02s15.34,25.8,15.34,45.36h-25.29c0-11.47-3.26-20.46-9.78-26.98-6.52-6.52-16.19-9.78-29-9.78h-103.53v-24.62l35.41-51.26c-8.55-7.19-15.18-15.9-19.9-26.14-4.72-10.23-7.08-21.41-7.08-33.56,0-13.94,3.37-26.81,10.12-38.61s15.96-21.08,27.65-27.82c11.69-6.75,24.5-10.12,38.45-10.12s27.65,3.6,39.79,10.79l23.27-30.69,19.9,14.84-23.94,32.38c5.4,6.74,9.61,14.33,12.65,22.76,3.04,8.43,4.55,17.26,4.55,26.47,0,14.16-3.37,27.1-10.12,38.78-6.75,11.69-16.02,20.97-27.82,27.82-11.8,6.86-24.68,10.29-38.61,10.29-9.23.02-18.22-1.55-26.99-4.71ZM879.01,184.47c7.87-4.72,14.11-11.13,18.72-19.22,4.6-8.09,6.91-16.86,6.91-26.3s-2.31-18.15-6.91-26.14c-4.61-7.98-10.85-14.33-18.72-19.05s-16.52-7.08-25.97-7.08-18.1,2.36-25.97,7.08-14.05,11.08-18.55,19.05c-4.5,7.98-6.74,16.69-6.74,26.14s2.24,18.83,6.74,26.81,10.68,14.28,18.55,18.88c7.87,4.61,16.52,6.91,25.97,6.91s18.09-2.36,25.97-7.08Z"/>
      </g>
      <g>
        <path class="cls-1" d="M668.84,297.49h5.51v11.45c1.91-3.82,4.7-6.85,8.37-9.12,3.67-2.26,7.7-3.39,12.08-3.39,1.91,0,3.29.11,4.13.32v5.3c-.64-.07-2.05-.11-4.24-.11-3.82,0-7.26.83-10.33,2.49s-5.5,4.03-7.26,7.1c-1.77,3.07-2.65,6.66-2.65,10.76v32.22h-5.62v-57.02h.01Z"/>
        <path class="cls-1" d="M709.12,351.66c-4.52-2.61-8.09-6.18-10.71-10.71-2.62-4.52-3.92-9.5-3.92-14.95s1.31-10.42,3.92-14.95c2.61-4.52,6.18-8.09,10.71-10.71,4.52-2.61,9.5-3.92,14.95-3.92s10.42,1.31,14.95,3.92c4.52,2.62,8.09,6.19,10.71,10.71,2.61,4.52,3.92,9.5,3.92,14.95s-1.31,10.42-3.92,14.95c-2.62,4.52-6.18,8.09-10.71,10.71-4.52,2.62-9.5,3.92-14.95,3.92-5.45,0-10.43-1.31-14.95-3.92ZM736.2,346.99c3.64-2.12,6.52-5.04,8.64-8.75s3.18-7.79,3.18-12.24-1.06-8.53-3.18-12.24c-2.12-3.71-5.02-6.62-8.69-8.75-3.68-2.12-7.7-3.18-12.08-3.18s-8.5,1.06-12.14,3.18-6.52,5.04-8.64,8.75-3.18,7.79-3.18,12.24,1.06,8.53,3.18,12.24c2.12,3.71,5,6.62,8.64,8.75,3.64,2.12,7.69,3.18,12.14,3.18s8.49-1.06,12.13-3.18Z"/>
        <path class="cls-1" d="M768.32,352.61c-3.57-1.98-6.34-4.73-8.32-8.27-1.98-3.53-2.97-7.63-2.97-12.3v-34.56h5.62v34.56c0,5.37,1.66,9.72,4.98,13.04s7.67,4.98,13.04,4.98,9.49-1.66,12.77-4.98c3.29-3.32,4.93-7.67,4.93-13.04v-34.56h5.62v34.56c0,4.66-.99,8.76-2.97,12.3s-4.74,6.29-8.27,8.27c-3.53,1.98-7.6,2.97-12.19,2.97-4.59,0-8.67-.99-12.24-2.97Z"/>
        <path class="cls-1" d="M807.7,353.46v-5.94c4.1,1.84,7.7,2.76,10.81,2.76,3.82,0,6.84-.97,9.06-2.91,2.23-1.94,3.34-4.65,3.34-8.11,0-2.47-.85-4.54-2.54-6.2-1.7-1.66-4.38-3.73-8.06-6.2-2.69-1.7-4.88-3.23-6.57-4.61s-3.13-3.02-4.29-4.93-1.75-4.06-1.75-6.47c0-4.52,1.52-8.06,4.56-10.6s6.92-3.82,11.66-3.82c3.39,0,6.64.78,9.75,2.33v6.04c-3.04-2.05-6.29-3.07-9.75-3.07-3.25,0-5.85.81-7.79,2.44s-2.92,3.82-2.92,6.57c0,2.26.86,4.26,2.6,5.99,1.73,1.73,4.33,3.73,7.79,5.99,2.76,1.91,4.98,3.55,6.68,4.93s3.14,3.04,4.35,4.98c1.2,1.95,1.8,4.15,1.8,6.62,0,5.09-1.59,9.08-4.77,11.98-3.18,2.9-7.56,4.35-13.14,4.35-3.54,0-7.15-.71-10.82-2.12Z"/>
        <path class="cls-1" d="M851.9,351.66c-4.52-2.61-8.09-6.18-10.71-10.71-2.62-4.52-3.92-9.5-3.92-14.95s1.31-10.42,3.92-14.95c2.61-4.52,6.18-8.09,10.71-10.71,4.52-2.61,9.5-3.92,14.95-3.92s10.28,1.31,14.73,3.92c4.45,2.62,7.97,6.19,10.55,10.71s3.87,9.5,3.87,14.95c0,1.13-.11,2.01-.32,2.65h-52.68c.42,4.1,1.73,7.77,3.92,11.02s5.02,5.81,8.48,7.69c3.46,1.87,7.28,2.81,11.45,2.81,4.73,0,9.01-1.24,12.83-3.71,3.82-2.47,6.54-5.76,8.16-9.86h6.25c-1.84,5.65-5.25,10.23-10.23,13.73s-10.65,5.25-17.01,5.25c-5.44,0-10.43-1.31-14.95-3.92ZM890.28,323.46c-.35-4.1-1.61-7.79-3.76-11.08-2.16-3.29-4.95-5.87-8.37-7.74-3.43-1.87-7.19-2.81-11.29-2.81s-7.99.94-11.45,2.81-6.29,4.45-8.48,7.74-3.5,6.98-3.92,11.08h47.27Z"/>
      </g>
    </g>
  </g>
</svg>